# xmcd
#
# Track frame offsets:
#	150
#	18547
#	28715
#	49422
#	63205
#	85427
#	102145
#	116860
#	128330
#	143877
#	158015
#	177130
#	203385
#	216667
#
# Disc length: 3152 seconds
# Revision: 1
# Processed by: cddbd v1.5.2PL0 Copyright (c) Steve Scherf et al.
# Submitted via: dBpowerAMP V12.0
#
DISCID=c00c4e0e
DTITLE=Nick Moss and The Flip Tops - Play It 'Til Tomorrow, Program Two
DYEAR=2007
DGENRE=Blues
TTITLE0=You've Got the Devil Inside
TTITLE1=I'll Be Straight with You
TTITLE2=Another Life Is Gone
TTITLE3=Fill 'Er Up
TTITLE4=It's Written in the Bible
TTITLE5=Wild Imagination
TTITLE6=You'll Remember My Name
TTITLE7=Crazy Mixed Up Baby '07
TTITLE8=Got My Mail Today
TTITLE9=I Shall Not Be Moved
TTITLE10=Slim's Lament
TTITLE11=Married Woman Blues
TTITLE12=I'll Be Straight with You
TTITLE13=It's Written in the Bible
EXTD=
EXTT0=
EXTT1=
EXTT2=
EXTT3=
EXTT4=
EXTT5=
EXTT6=
EXTT7=
EXTT8=
EXTT9=
EXTT10=
EXTT11=
EXTT12=
EXTT13=
PLAYORDER=
